<?xml version="1.0" encoding="UTF-8" standalone="no" ?>
<!DOCTYPE svg PUBLIC "-//W3C//DTD SVG 1.1//EN" "http://www.w3.org/Graphics/SVG/1.1/DTD/svg11.dtd">
<svg xmlns="http://www.w3.org/2000/svg" xmlns:xlink="http://www.w3.org/1999/xlink" version="1.1" width="500" height="500" viewBox="0 0 500 500" xml:space="preserve">
<desc>Created with Fabric.js 4.6.0</desc>
<defs>
</defs>
<g transform="matrix(1 0 0 1 189.03 244.03)" id="6ycPPtiAm97J7EnBh1Ipm"  >
<path style="stroke: rgb(255,255,255); stroke-width: 1; stroke-dasharray: none; stroke-linecap: butt; stroke-dashoffset: 0; stroke-linejoin: miter; stroke-miterlimit: 4; fill: rgb(255,255,255); fill-rule: nonzero; opacity: 1;" vector-effect="non-scaling-stroke"  transform=" translate(0, 0)" d="M -177.40747 142.5087 L -146.37583999999998 194.19718 L 23.97699000000003 -99.67232000000001 L 124.80679000000003 75.45343 L 177.40746000000004 75.45343 L 23.32340000000005 -194.19719 z" stroke-linecap="round" />
</g>
<g transform="matrix(1 0 0 1 331.26 216.8)" id="U3X3RXat2HXJ12E5UEXcU"  >
<path style="stroke: rgb(255,255,255); stroke-width: 1; stroke-dasharray: none; stroke-linecap: butt; stroke-dashoffset: 0; stroke-linejoin: miter; stroke-miterlimit: 4; fill: rgb(255,255,255); fill-rule: nonzero; opacity: 1;" vector-effect="non-scaling-stroke"  transform=" translate(0, 0)" d="M -95.45861 -165.99617 L -31.452349999999996 -165.99617 L 157.59863 165.99617 L -157.59863 165.99617 L -132.97857000000002 121.74676000000001 L 68.54118999999997 121.74676000000001 z" stroke-linecap="round" />
</g>
<g transform="matrix(1 0 0 1 268.95 319.01)" id="0SoFnZw0M-TDjeFKNtFgt"  >
<path style="stroke: rgb(255,255,255); stroke-width: 1; stroke-dasharray: none; stroke-linecap: butt; stroke-dashoffset: 0; stroke-linejoin: miter; stroke-miterlimit: 4; fill: rgb(255,255,255); fill-rule: nonzero; opacity: 1;" vector-effect="non-scaling-stroke"  transform=" translate(0, 0)" d="M -54.31017 -134.9775 L -28.89952 -93.02557999999999 L -132.94672 87.6978 L 213.21112000000002 87.6978 L 185.23116000000002 134.9775 L -213.21109999999996 134.9775 z" stroke-linecap="round" />
</g>
</svg>